<mxfile host="app.diagrams.net" modified="2022-11-01T14:48:39.531Z" agent="5.0 (Windows NT 10.0; Win64; x64) AppleWebKit/537.36 (KHTML, like Gecko) Chrome/107.0.0.0 Safari/537.36" etag="Lm4yhZsD_sQojZYYbOs6" version="20.5.1" type="github">
  <diagram id="wgHW7e4EUa4GgYDRs7Ng" name="Page-1">
    <mxGraphModel dx="2822" dy="2757" grid="1" gridSize="10" guides="1" tooltips="1" connect="1" arrows="1" fold="1" page="1" pageScale="1" pageWidth="700" pageHeight="1000" math="0" shadow="0">
      <root>
        <mxCell id="0" />
        <mxCell id="1" parent="0" />
        <mxCell id="mvNzvA__HQaBql2vhhs9-19" value="" style="aspect=fixed;perimeter=ellipsePerimeter;html=1;align=center;shadow=0;dashed=0;spacingTop=3;image;image=img/lib/active_directory/internet_cloud.svg;fontSize=14;" parent="1" vertex="1">
          <mxGeometry x="-1130" y="-1530" width="910" height="573.3" as="geometry" />
        </mxCell>
        <mxCell id="mvNzvA__HQaBql2vhhs9-1" value="" style="verticalLabelPosition=bottom;html=1;verticalAlign=top;strokeWidth=1;align=center;outlineConnect=0;dashed=0;outlineConnect=0;shape=mxgraph.aws3d.application;fillColor=#4286c5;strokeColor=#57A2D8;aspect=fixed;" parent="1" vertex="1">
          <mxGeometry x="-870" y="-1441.6100000000001" width="110" height="122.06" as="geometry" />
        </mxCell>
        <mxCell id="mvNzvA__HQaBql2vhhs9-3" value="" style="verticalLabelPosition=bottom;html=1;verticalAlign=top;strokeWidth=1;align=center;outlineConnect=0;dashed=0;outlineConnect=0;shape=mxgraph.aws3d.application;fillColor=#4286c5;strokeColor=#57A2D8;aspect=fixed;" parent="1" vertex="1">
          <mxGeometry x="-621" y="-1441.6100000000001" width="110" height="122.06" as="geometry" />
        </mxCell>
        <mxCell id="mvNzvA__HQaBql2vhhs9-5" value="Project Creator" style="text;strokeColor=none;fillColor=none;html=1;fontSize=24;fontStyle=1;verticalAlign=middle;align=center;" parent="1" vertex="1">
          <mxGeometry x="-870" y="-1308.35" width="100" height="40" as="geometry" />
        </mxCell>
        <mxCell id="mvNzvA__HQaBql2vhhs9-6" value="Library" style="text;strokeColor=none;fillColor=none;html=1;fontSize=24;fontStyle=1;verticalAlign=middle;align=center;" parent="1" vertex="1">
          <mxGeometry x="-611" y="-1308.35" width="100" height="40" as="geometry" />
        </mxCell>
        <mxCell id="mvNzvA__HQaBql2vhhs9-8" value="&lt;ul&gt;&lt;li&gt;Create Sewing Projects&lt;/li&gt;&lt;li&gt;Share with anyone&lt;/li&gt;&lt;/ul&gt;" style="text;strokeColor=none;fillColor=none;html=1;whiteSpace=wrap;verticalAlign=middle;overflow=hidden;fontSize=14;" parent="1" vertex="1">
          <mxGeometry x="-941" y="-1268.35" width="190" height="50" as="geometry" />
        </mxCell>
        <mxCell id="mvNzvA__HQaBql2vhhs9-10" value="&lt;ul&gt;&lt;li&gt;Purchase Embroidery Designs&lt;/li&gt;&lt;li&gt;Free Designs&lt;/li&gt;&lt;/ul&gt;" style="text;strokeColor=none;fillColor=none;html=1;whiteSpace=wrap;verticalAlign=middle;overflow=hidden;fontSize=14;" parent="1" vertex="1">
          <mxGeometry x="-681" y="-1268.35" width="240" height="50" as="geometry" />
        </mxCell>
        <mxCell id="mvNzvA__HQaBql2vhhs9-11" value="" style="outlineConnect=0;dashed=0;verticalLabelPosition=bottom;verticalAlign=top;align=center;html=1;shape=mxgraph.aws3.vault;fillColor=#E05243;gradientColor=none;fontSize=14;" parent="1" vertex="1">
          <mxGeometry x="-870" y="-1196.35" width="109" height="100" as="geometry" />
        </mxCell>
        <mxCell id="mvNzvA__HQaBql2vhhs9-12" value="Vault" style="text;strokeColor=none;fillColor=none;html=1;fontSize=24;fontStyle=1;verticalAlign=middle;align=center;" parent="1" vertex="1">
          <mxGeometry x="-865" y="-1086.35" width="100" height="40" as="geometry" />
        </mxCell>
        <mxCell id="mvNzvA__HQaBql2vhhs9-13" value="" style="html=1;verticalLabelPosition=bottom;align=center;labelBackgroundColor=#ffffff;verticalAlign=top;strokeWidth=2;strokeColor=#0080F0;shadow=0;dashed=0;shape=mxgraph.ios7.icons.help;fontSize=14;" parent="1" vertex="1">
          <mxGeometry x="-616" y="-1186.35" width="100" height="80" as="geometry" />
        </mxCell>
        <mxCell id="mvNzvA__HQaBql2vhhs9-14" value="Help" style="text;strokeColor=none;fillColor=none;html=1;fontSize=24;fontStyle=1;verticalAlign=middle;align=center;" parent="1" vertex="1">
          <mxGeometry x="-611" y="-1086.35" width="100" height="40" as="geometry" />
        </mxCell>
        <mxCell id="mvNzvA__HQaBql2vhhs9-15" value="(https://projectcreator.mysewnet.com)" style="text;html=1;strokeColor=none;fillColor=none;align=center;verticalAlign=middle;whiteSpace=wrap;rounded=0;fontSize=14;fontStyle=1" parent="1" vertex="1">
          <mxGeometry x="-940" y="-1278.35" width="240" height="30" as="geometry" />
        </mxCell>
        <mxCell id="mvNzvA__HQaBql2vhhs9-17" value="(https://library.mysewnet.com)" style="text;html=1;strokeColor=none;fillColor=none;align=center;verticalAlign=middle;whiteSpace=wrap;rounded=0;fontSize=14;fontStyle=1" parent="1" vertex="1">
          <mxGeometry x="-671" y="-1278.35" width="240" height="30" as="geometry" />
        </mxCell>
        <mxCell id="mvNzvA__HQaBql2vhhs9-18" value="(https:vault.mysewnet.com)" style="text;html=1;strokeColor=none;fillColor=none;align=center;verticalAlign=middle;whiteSpace=wrap;rounded=0;fontSize=14;fontStyle=1" parent="1" vertex="1">
          <mxGeometry x="-921" y="-1058.35" width="240" height="30" as="geometry" />
        </mxCell>
        <mxCell id="mvNzvA__HQaBql2vhhs9-25" value="" style="aspect=fixed;perimeter=ellipsePerimeter;html=1;align=center;shadow=0;dashed=0;spacingTop=3;image;image=img/lib/active_directory/internet_cloud.svg;fontSize=14;" parent="1" vertex="1">
          <mxGeometry x="-230" y="-1448.95" width="617.38" height="388.95" as="geometry" />
        </mxCell>
        <mxCell id="mvNzvA__HQaBql2vhhs9-20" value="" style="verticalLabelPosition=bottom;html=1;verticalAlign=top;strokeWidth=1;align=center;outlineConnect=0;dashed=0;outlineConnect=0;shape=mxgraph.aws3d.application;fillColor=#4286c5;strokeColor=#57A2D8;aspect=fixed;" parent="1" vertex="1">
          <mxGeometry x="50" y="-1441.6100000000001" width="110" height="122.06" as="geometry" />
        </mxCell>
        <mxCell id="mvNzvA__HQaBql2vhhs9-21" value="mySewnet" style="text;strokeColor=none;fillColor=none;html=1;fontSize=24;fontStyle=1;verticalAlign=middle;align=center;" parent="1" vertex="1">
          <mxGeometry x="60" y="-1308.35" width="100" height="40" as="geometry" />
        </mxCell>
        <mxCell id="mvNzvA__HQaBql2vhhs9-23" value="(https://mysewnet.com)" style="text;html=1;align=center;verticalAlign=middle;resizable=0;points=[];autosize=1;strokeColor=none;fillColor=none;fontSize=14;fontStyle=1" parent="1" vertex="1">
          <mxGeometry x="20" y="-1278.35" width="180" height="30" as="geometry" />
        </mxCell>
        <mxCell id="mvNzvA__HQaBql2vhhs9-24" value="&lt;ul&gt;&lt;li&gt;mySewnet Subscriptions&lt;/li&gt;&lt;li&gt;Promotion codes&lt;/li&gt;&lt;li&gt;Perpetual Licenses&lt;/li&gt;&lt;li&gt;Renewals&lt;/li&gt;&lt;li&gt;Upgrades&lt;/li&gt;&lt;li&gt;Downgrades&lt;/li&gt;&lt;li&gt;Invoices&lt;/li&gt;&lt;li&gt;Customer Dashboard&lt;/li&gt;&lt;li&gt;Purchases&lt;/li&gt;&lt;li&gt;mySewnet Cloud&lt;/li&gt;&lt;/ul&gt;" style="text;strokeColor=none;fillColor=none;html=1;whiteSpace=wrap;verticalAlign=middle;overflow=hidden;fontSize=14;" parent="1" vertex="1">
          <mxGeometry x="2.5" y="-1268.35" width="205" height="188.35" as="geometry" />
        </mxCell>
        <mxCell id="mvNzvA__HQaBql2vhhs9-30" value="" style="aspect=fixed;perimeter=ellipsePerimeter;html=1;align=center;shadow=0;dashed=0;spacingTop=3;image;image=img/lib/active_directory/internet_cloud.svg;fontSize=14;" parent="1" vertex="1">
          <mxGeometry x="394" y="-1453.1100000000001" width="566.28" height="356.76" as="geometry" />
        </mxCell>
        <mxCell id="mvNzvA__HQaBql2vhhs9-26" value="" style="verticalLabelPosition=bottom;html=1;verticalAlign=top;strokeWidth=1;align=center;outlineConnect=0;dashed=0;outlineConnect=0;shape=mxgraph.aws3d.application;fillColor=#4286c5;strokeColor=#57A2D8;aspect=fixed;" parent="1" vertex="1">
          <mxGeometry x="620" y="-1430.4099999999999" width="110" height="122.06" as="geometry" />
        </mxCell>
        <mxCell id="mvNzvA__HQaBql2vhhs9-27" value="Recurly" style="text;strokeColor=none;fillColor=none;html=1;fontSize=24;fontStyle=1;verticalAlign=middle;align=center;" parent="1" vertex="1">
          <mxGeometry x="615" y="-1308.35" width="100" height="40" as="geometry" />
        </mxCell>
        <mxCell id="mvNzvA__HQaBql2vhhs9-28" value="(https://mysewnet.recurly.com)" style="text;html=1;align=center;verticalAlign=middle;resizable=0;points=[];autosize=1;strokeColor=none;fillColor=none;fontSize=14;fontStyle=1" parent="1" vertex="1">
          <mxGeometry x="570" y="-1278.35" width="230" height="30" as="geometry" />
        </mxCell>
        <mxCell id="mvNzvA__HQaBql2vhhs9-29" value="&lt;ul&gt;&lt;li&gt;Manage Subscriptions&lt;/li&gt;&lt;li&gt;Manage Coupons&lt;/li&gt;&lt;li&gt;Manage Payments&lt;/li&gt;&lt;li&gt;Manage Invoices&lt;/li&gt;&lt;li&gt;Sales Reports&lt;/li&gt;&lt;li&gt;Emails&lt;/li&gt;&lt;li&gt;&lt;br&gt;&lt;/li&gt;&lt;/ul&gt;" style="text;strokeColor=none;fillColor=none;html=1;whiteSpace=wrap;verticalAlign=middle;overflow=hidden;fontSize=14;" parent="1" vertex="1">
          <mxGeometry x="582.5" y="-1260" width="185" height="120" as="geometry" />
        </mxCell>
        <mxCell id="mvNzvA__HQaBql2vhhs9-36" value="" style="aspect=fixed;perimeter=ellipsePerimeter;html=1;align=center;shadow=0;dashed=0;spacingTop=3;image;image=img/lib/active_directory/internet_cloud.svg;fontSize=14;" parent="1" vertex="1">
          <mxGeometry x="1000" y="-1441.6100000000001" width="474.52" height="298.95" as="geometry" />
        </mxCell>
        <mxCell id="mvNzvA__HQaBql2vhhs9-32" value="" style="verticalLabelPosition=bottom;html=1;verticalAlign=top;strokeWidth=1;align=center;outlineConnect=0;dashed=0;outlineConnect=0;shape=mxgraph.aws3d.application;fillColor=#4286c5;strokeColor=#57A2D8;aspect=fixed;" parent="1" vertex="1">
          <mxGeometry x="1210" y="-1430.4099999999999" width="110" height="122.06" as="geometry" />
        </mxCell>
        <mxCell id="mvNzvA__HQaBql2vhhs9-33" value="CyberSource" style="text;strokeColor=none;fillColor=none;html=1;fontSize=24;fontStyle=1;verticalAlign=middle;align=center;" parent="1" vertex="1">
          <mxGeometry x="1215" y="-1308.35" width="100" height="40" as="geometry" />
        </mxCell>
        <mxCell id="mvNzvA__HQaBql2vhhs9-34" value="https://ebc2.cybersource.com/ebc2" style="text;html=1;align=center;verticalAlign=middle;resizable=0;points=[];autosize=1;strokeColor=none;fillColor=none;fontSize=14;fontStyle=1" parent="1" vertex="1">
          <mxGeometry x="1140" y="-1278.35" width="260" height="30" as="geometry" />
        </mxCell>
        <mxCell id="mvNzvA__HQaBql2vhhs9-35" value="&lt;ul&gt;&lt;li&gt;Tokenize Payment Methods&lt;/li&gt;&lt;li&gt;Authorize Payments&lt;/li&gt;&lt;li&gt;Collect Payments&lt;/li&gt;&lt;li&gt;Refunds&lt;/li&gt;&lt;li&gt;&lt;br&gt;&lt;/li&gt;&lt;/ul&gt;" style="text;strokeColor=none;fillColor=none;html=1;whiteSpace=wrap;verticalAlign=middle;overflow=hidden;fontSize=14;" parent="1" vertex="1">
          <mxGeometry x="1152.5" y="-1268.35" width="225" height="90" as="geometry" />
        </mxCell>
        <mxCell id="mvNzvA__HQaBql2vhhs9-37" value="AWS (Managed by R&amp;amp;D)" style="text;strokeColor=none;fillColor=none;html=1;fontSize=24;fontStyle=1;verticalAlign=middle;align=center;" parent="1" vertex="1">
          <mxGeometry x="-798" y="-1550" width="301" height="40" as="geometry" />
        </mxCell>
        <mxCell id="mvNzvA__HQaBql2vhhs9-38" value="Azure (Optimizely DXP)" style="text;strokeColor=none;fillColor=none;html=1;fontSize=24;fontStyle=1;verticalAlign=middle;align=center;" parent="1" vertex="1">
          <mxGeometry x="-58" y="-1510" width="290" height="40" as="geometry" />
        </mxCell>
        <mxCell id="mvNzvA__HQaBql2vhhs9-39" value="Recurly Cloud" style="text;strokeColor=none;fillColor=none;html=1;fontSize=24;fontStyle=1;verticalAlign=middle;align=center;" parent="1" vertex="1">
          <mxGeometry x="570" y="-1500" width="180" height="40" as="geometry" />
        </mxCell>
        <mxCell id="mvNzvA__HQaBql2vhhs9-40" value="CyberSource Cloud" style="text;strokeColor=none;fillColor=none;html=1;fontSize=24;fontStyle=1;verticalAlign=middle;align=center;" parent="1" vertex="1">
          <mxGeometry x="1135" y="-1500" width="240" height="40" as="geometry" />
        </mxCell>
        <mxCell id="mvNzvA__HQaBql2vhhs9-45" value="" style="aspect=fixed;perimeter=ellipsePerimeter;html=1;align=center;shadow=0;dashed=0;spacingTop=3;image;image=img/lib/active_directory/internet_cloud.svg;fontSize=14;" parent="1" vertex="1">
          <mxGeometry x="810" y="-829.8499999999999" width="555.56" height="350" as="geometry" />
        </mxCell>
        <mxCell id="mvNzvA__HQaBql2vhhs9-41" value="" style="verticalLabelPosition=bottom;html=1;verticalAlign=top;strokeWidth=1;align=center;outlineConnect=0;dashed=0;outlineConnect=0;shape=mxgraph.aws3d.application;fillColor=#4286c5;strokeColor=#57A2D8;aspect=fixed;" parent="1" vertex="1">
          <mxGeometry x="1042.5" y="-796.9099999999999" width="110" height="122.06" as="geometry" />
        </mxCell>
        <mxCell id="mvNzvA__HQaBql2vhhs9-42" value="Elastic Path" style="text;strokeColor=none;fillColor=none;html=1;fontSize=24;fontStyle=1;verticalAlign=middle;align=center;" parent="1" vertex="1">
          <mxGeometry x="1020" y="-672.79" width="155" height="37.94" as="geometry" />
        </mxCell>
        <mxCell id="mvNzvA__HQaBql2vhhs9-43" value="https://cm01.ep-prod.ep-singer.com/cm/admin" style="text;html=1;align=center;verticalAlign=middle;resizable=0;points=[];autosize=1;strokeColor=none;fillColor=none;fontSize=14;fontStyle=1" parent="1" vertex="1">
          <mxGeometry x="950" y="-644.4999999999999" width="330" height="30" as="geometry" />
        </mxCell>
        <mxCell id="mvNzvA__HQaBql2vhhs9-44" value="&lt;ul&gt;&lt;li&gt;Manage Single Design Purchases&lt;/li&gt;&lt;li&gt;Manage Promo Codes&lt;/li&gt;&lt;li&gt;Manage Perpetual Codes&lt;/li&gt;&lt;li&gt;Integrate with CyberSource&lt;/li&gt;&lt;/ul&gt;" style="text;strokeColor=none;fillColor=none;html=1;whiteSpace=wrap;verticalAlign=middle;overflow=hidden;fontSize=14;" parent="1" vertex="1">
          <mxGeometry x="990" y="-628.9999999999999" width="270" height="100" as="geometry" />
        </mxCell>
        <mxCell id="mvNzvA__HQaBql2vhhs9-46" value="Cloudops AWS" style="text;strokeColor=none;fillColor=none;html=1;fontSize=24;fontStyle=1;verticalAlign=middle;align=center;" parent="1" vertex="1">
          <mxGeometry x="900" y="-859.9999999999999" width="240" height="40" as="geometry" />
        </mxCell>
        <mxCell id="mvNzvA__HQaBql2vhhs9-47" value="" style="aspect=fixed;html=1;points=[];align=center;image;fontSize=12;image=img/lib/azure2/databases/SQL_Database.svg;" parent="1" vertex="1">
          <mxGeometry x="143" y="-837.3499999999999" width="48" height="64" as="geometry" />
        </mxCell>
        <mxCell id="mvNzvA__HQaBql2vhhs9-48" value="mySewnet DB" style="text;strokeColor=none;fillColor=none;html=1;fontSize=24;fontStyle=1;verticalAlign=middle;align=center;" parent="1" vertex="1">
          <mxGeometry x="-128" y="-775" width="180" height="40" as="geometry" />
        </mxCell>
        <mxCell id="mvNzvA__HQaBql2vhhs9-49" value="&lt;b&gt;10.1.12.60&lt;/b&gt;" style="text;html=1;align=center;verticalAlign=middle;resizable=0;points=[];autosize=1;strokeColor=none;fillColor=none;fontSize=14;" parent="1" vertex="1">
          <mxGeometry x="-83" y="-743" width="90" height="30" as="geometry" />
        </mxCell>
        <mxCell id="mvNzvA__HQaBql2vhhs9-50" value="" style="aspect=fixed;html=1;points=[];align=center;image;fontSize=12;image=img/lib/azure2/databases/SQL_Database.svg;" parent="1" vertex="1">
          <mxGeometry x="350" y="-839" width="48" height="64" as="geometry" />
        </mxCell>
        <mxCell id="mvNzvA__HQaBql2vhhs9-51" value="" style="aspect=fixed;html=1;points=[];align=center;image;fontSize=12;image=img/lib/azure2/databases/SQL_Database.svg;" parent="1" vertex="1">
          <mxGeometry x="570" y="-839" width="48" height="64" as="geometry" />
        </mxCell>
        <mxCell id="mvNzvA__HQaBql2vhhs9-52" value="Pfaff FW Images" style="text;strokeColor=none;fillColor=none;html=1;fontSize=24;fontStyle=1;verticalAlign=middle;align=center;" parent="1" vertex="1">
          <mxGeometry x="309" y="-773" width="180" height="40" as="geometry" />
        </mxCell>
        <mxCell id="mvNzvA__HQaBql2vhhs9-53" value="HV FW Images" style="text;strokeColor=none;fillColor=none;html=1;fontSize=24;fontStyle=1;verticalAlign=middle;align=center;" parent="1" vertex="1">
          <mxGeometry x="77" y="-775" width="180" height="40" as="geometry" />
        </mxCell>
        <mxCell id="mvNzvA__HQaBql2vhhs9-55" value="&lt;b&gt;10.1.12.60&lt;/b&gt;" style="text;html=1;align=center;verticalAlign=middle;resizable=0;points=[];autosize=1;strokeColor=none;fillColor=none;fontSize=14;" parent="1" vertex="1">
          <mxGeometry x="360" y="-743" width="90" height="30" as="geometry" />
        </mxCell>
        <mxCell id="mvNzvA__HQaBql2vhhs9-56" value="&lt;b&gt;10.1.12.60&lt;/b&gt;" style="text;html=1;align=center;verticalAlign=middle;resizable=0;points=[];autosize=1;strokeColor=none;fillColor=none;fontSize=14;" parent="1" vertex="1">
          <mxGeometry x="110" y="-747.3499999999999" width="90" height="30" as="geometry" />
        </mxCell>
        <mxCell id="mvNzvA__HQaBql2vhhs9-57" value="" style="image;html=1;image=img/lib/clip_art/computers/iPad_128x128.png;fontSize=14;" parent="1" vertex="1">
          <mxGeometry x="-878" y="-780.5" width="80" height="80" as="geometry" />
        </mxCell>
        <mxCell id="mvNzvA__HQaBql2vhhs9-58" value="" style="shape=mxgraph.signs.tech.computer;html=1;pointerEvents=1;fillColor=#000000;strokeColor=none;verticalLabelPosition=bottom;verticalAlign=top;align=center;fontSize=14;" parent="1" vertex="1">
          <mxGeometry x="-651" y="-791.5" width="98" height="98" as="geometry" />
        </mxCell>
        <mxCell id="mvNzvA__HQaBql2vhhs9-60" value="" style="shape=image;html=1;verticalAlign=top;verticalLabelPosition=bottom;labelBackgroundColor=#ffffff;imageAspect=0;aspect=fixed;image=https://cdn4.iconfinder.com/data/icons/essential-app-1/16/mobile-phone-smart-screen-128.png;fontSize=14;" parent="1" vertex="1">
          <mxGeometry x="-656" y="-588.5" width="128" height="128" as="geometry" />
        </mxCell>
        <mxCell id="mvNzvA__HQaBql2vhhs9-61" value="" style="verticalLabelPosition=bottom;sketch=0;aspect=fixed;html=1;verticalAlign=top;strokeColor=none;align=center;outlineConnect=0;shape=mxgraph.citrix.laptop_2;fontSize=14;" parent="1" vertex="1">
          <mxGeometry x="-896" y="-558.5" width="116" height="86.5" as="geometry" />
        </mxCell>
        <mxCell id="mvNzvA__HQaBql2vhhs9-62" value="Tablet" style="text;strokeColor=none;fillColor=none;html=1;fontSize=24;fontStyle=1;verticalAlign=middle;align=center;" parent="1" vertex="1">
          <mxGeometry x="-888" y="-693.5" width="100" height="40" as="geometry" />
        </mxCell>
        <mxCell id="mvNzvA__HQaBql2vhhs9-63" value="Computer" style="text;strokeColor=none;fillColor=none;html=1;fontSize=24;fontStyle=1;verticalAlign=middle;align=center;" parent="1" vertex="1">
          <mxGeometry x="-666" y="-674.8499999999999" width="125" height="40" as="geometry" />
        </mxCell>
        <mxCell id="mvNzvA__HQaBql2vhhs9-65" value="Laptop" style="text;strokeColor=none;fillColor=none;html=1;fontSize=24;fontStyle=1;verticalAlign=middle;align=center;" parent="1" vertex="1">
          <mxGeometry x="-878" y="-460.5" width="100" height="40" as="geometry" />
        </mxCell>
        <mxCell id="mvNzvA__HQaBql2vhhs9-66" value="Smart Phone" style="text;strokeColor=none;fillColor=none;html=1;fontSize=24;fontStyle=1;verticalAlign=middle;align=center;" parent="1" vertex="1">
          <mxGeometry x="-666" y="-438.5" width="176" height="40" as="geometry" />
        </mxCell>
        <mxCell id="mvNzvA__HQaBql2vhhs9-67" value="" style="aspect=fixed;html=1;points=[];align=center;image;fontSize=12;image=img/lib/azure2/databases/SQL_Database.svg;" parent="1" vertex="1">
          <mxGeometry x="-62" y="-834.8499999999999" width="48" height="64" as="geometry" />
        </mxCell>
        <mxCell id="mvNzvA__HQaBql2vhhs9-68" value="" style="aspect=fixed;html=1;points=[];align=center;image;fontSize=12;image=img/lib/azure2/databases/SQL_Database.svg;" parent="1" vertex="1">
          <mxGeometry x="576" y="-647.3499999999999" width="48" height="64" as="geometry" />
        </mxCell>
        <mxCell id="mvNzvA__HQaBql2vhhs9-69" value="Dealers DB" style="text;strokeColor=none;fillColor=none;html=1;fontSize=24;fontStyle=1;verticalAlign=middle;align=center;" parent="1" vertex="1">
          <mxGeometry x="517.75" y="-773" width="152.5" height="40" as="geometry" />
        </mxCell>
        <mxCell id="mvNzvA__HQaBql2vhhs9-70" value="Machines DB" style="text;strokeColor=none;fillColor=none;html=1;fontSize=24;fontStyle=1;verticalAlign=middle;align=center;" parent="1" vertex="1">
          <mxGeometry x="517.75" y="-581" width="185" height="40" as="geometry" />
        </mxCell>
        <mxCell id="mvNzvA__HQaBql2vhhs9-71" value="HQDC-SQLINT-1.CD.CORP" style="text;html=1;align=center;verticalAlign=middle;resizable=0;points=[];autosize=1;strokeColor=none;fillColor=none;fontSize=14;fontStyle=1" parent="1" vertex="1">
          <mxGeometry x="500" y="-733" width="200" height="30" as="geometry" />
        </mxCell>
        <mxCell id="mvNzvA__HQaBql2vhhs9-72" value="HQDC-SQLINT-1.CD.CORP" style="text;html=1;align=center;verticalAlign=middle;resizable=0;points=[];autosize=1;strokeColor=none;fillColor=none;fontSize=14;fontStyle=1" parent="1" vertex="1">
          <mxGeometry x="517.75" y="-542.35" width="200" height="30" as="geometry" />
        </mxCell>
        <mxCell id="mvNzvA__HQaBql2vhhs9-73" value="" style="shape=image;html=1;verticalAlign=top;verticalLabelPosition=bottom;labelBackgroundColor=#ffffff;imageAspect=0;aspect=fixed;image=https://cdn1.iconfinder.com/data/icons/icons-for-a-site-1/64/advantage_wallet-128.png;fontSize=14;" parent="1" vertex="1">
          <mxGeometry x="322" y="-665.3499999999999" width="128" height="128" as="geometry" />
        </mxCell>
        <mxCell id="mvNzvA__HQaBql2vhhs9-74" value="JDE" style="text;strokeColor=none;fillColor=none;html=1;fontSize=24;fontStyle=1;verticalAlign=middle;align=center;" parent="1" vertex="1">
          <mxGeometry x="340.38" y="-549" width="100" height="40" as="geometry" />
        </mxCell>
        <mxCell id="mvNzvA__HQaBql2vhhs9-75" value="&lt;ul&gt;&lt;li&gt;Manage Finance&lt;/li&gt;&lt;li&gt;Manage Invoices&lt;/li&gt;&lt;li&gt;Manage Sales&lt;/li&gt;&lt;/ul&gt;" style="text;strokeColor=none;fillColor=none;html=1;whiteSpace=wrap;verticalAlign=middle;overflow=hidden;fontSize=14;" parent="1" vertex="1">
          <mxGeometry x="303" y="-531" width="166" height="80" as="geometry" />
        </mxCell>
        <mxCell id="mvNzvA__HQaBql2vhhs9-76" value="" style="shape=image;html=1;verticalAlign=top;verticalLabelPosition=bottom;labelBackgroundColor=#ffffff;imageAspect=0;aspect=fixed;image=https://cdn1.iconfinder.com/data/icons/nuvola2/48x48/actions/kgpg_identity.png;fontSize=14;" parent="1" vertex="1">
          <mxGeometry x="-89" y="-654" width="103" height="103" as="geometry" />
        </mxCell>
        <mxCell id="mvNzvA__HQaBql2vhhs9-77" value="" style="sketch=0;html=1;dashed=0;whitespace=wrap;fillColor=#2875E2;strokeColor=#ffffff;points=[[0.005,0.63,0],[0.1,0.2,0],[0.9,0.2,0],[0.5,0,0],[0.995,0.63,0],[0.72,0.99,0],[0.5,1,0],[0.28,0.99,0]];verticalLabelPosition=bottom;align=center;verticalAlign=top;shape=mxgraph.kubernetes.icon;prIcon=api;fontSize=14;" parent="1" vertex="1">
          <mxGeometry x="102" y="-666" width="130" height="120" as="geometry" />
        </mxCell>
        <mxCell id="mvNzvA__HQaBql2vhhs9-78" value="mySewnet API" style="text;strokeColor=none;fillColor=none;html=1;fontSize=24;fontStyle=1;verticalAlign=middle;align=center;" parent="1" vertex="1">
          <mxGeometry x="120" y="-552.35" width="100" height="40" as="geometry" />
        </mxCell>
        <mxCell id="mvNzvA__HQaBql2vhhs9-79" value="SSO" style="text;strokeColor=none;fillColor=none;html=1;fontSize=24;fontStyle=1;verticalAlign=middle;align=center;" parent="1" vertex="1">
          <mxGeometry x="-89" y="-552.35" width="100" height="40" as="geometry" />
        </mxCell>
        <mxCell id="mvNzvA__HQaBql2vhhs9-80" value="&lt;ul&gt;&lt;li&gt;Create User&lt;/li&gt;&lt;li&gt;Login /Authenticate&lt;/li&gt;&lt;li&gt;Reset Password&lt;/li&gt;&lt;li&gt;Roles&lt;/li&gt;&lt;/ul&gt;" style="text;strokeColor=none;fillColor=none;html=1;whiteSpace=wrap;verticalAlign=middle;overflow=hidden;fontSize=14;" parent="1" vertex="1">
          <mxGeometry x="-130" y="-492.35" width="177.5" height="90" as="geometry" />
        </mxCell>
        <mxCell id="mvNzvA__HQaBql2vhhs9-81" value="&lt;ul&gt;&lt;li&gt;Communicate with Recurly&lt;/li&gt;&lt;li&gt;Communicate with Avalara&lt;/li&gt;&lt;li&gt;Communicate with mySewnet&lt;/li&gt;&lt;li&gt;Communicate with EP&lt;/li&gt;&lt;/ul&gt;" style="text;strokeColor=none;fillColor=none;html=1;whiteSpace=wrap;verticalAlign=middle;overflow=hidden;fontSize=14;" parent="1" vertex="1">
          <mxGeometry x="60" y="-492.35000000000014" width="238" height="96.35" as="geometry" />
        </mxCell>
        <mxCell id="mvNzvA__HQaBql2vhhs9-85" value="" style="rounded=1;whiteSpace=wrap;html=1;fontSize=14;textOpacity=0;fillColor=none;strokeWidth=4;strokeColor=#d79b00;" parent="1" vertex="1">
          <mxGeometry x="-1000" y="-860" width="600" height="520" as="geometry" />
        </mxCell>
        <mxCell id="mvNzvA__HQaBql2vhhs9-82" value="&lt;b&gt;(http://api.mysewnet.com)&lt;br&gt;/ 10.10.20.131&lt;br&gt;&lt;/b&gt;" style="text;html=1;align=center;verticalAlign=middle;resizable=0;points=[];autosize=1;strokeColor=none;fillColor=none;fontSize=14;" parent="1" vertex="1">
          <mxGeometry x="79" y="-524.5" width="200" height="50" as="geometry" />
        </mxCell>
        <mxCell id="mvNzvA__HQaBql2vhhs9-83" value="(https://login.mysewnet.com)&lt;br&gt;/ 10.10.20.131" style="text;html=1;align=center;verticalAlign=middle;resizable=0;points=[];autosize=1;strokeColor=none;fillColor=none;fontSize=14;fontStyle=1" parent="1" vertex="1">
          <mxGeometry x="-140" y="-526" width="220" height="50" as="geometry" />
        </mxCell>
        <mxCell id="mvNzvA__HQaBql2vhhs9-88" value="Customers, Dealers, Customer Support, SVP Employees" style="text;strokeColor=none;fillColor=none;html=1;fontSize=24;fontStyle=1;verticalAlign=middle;align=center;strokeWidth=4;" parent="1" vertex="1">
          <mxGeometry x="-1040" y="-330" width="660" height="40" as="geometry" />
        </mxCell>
        <mxCell id="mvNzvA__HQaBql2vhhs9-89" value="SVP Intranet" style="text;strokeColor=none;fillColor=none;html=1;fontSize=24;fontStyle=1;verticalAlign=middle;align=center;strokeWidth=4;" parent="1" vertex="1">
          <mxGeometry x="113.38" y="-320" width="227" height="40" as="geometry" />
        </mxCell>
        <mxCell id="mvNzvA__HQaBql2vhhs9-99" value="SSO" style="ellipse;whiteSpace=wrap;html=1;strokeWidth=4;fontSize=14;fillColor=none;fontStyle=1" parent="1" vertex="1">
          <mxGeometry x="-280" y="-1620" width="120" height="80" as="geometry" />
        </mxCell>
        <mxCell id="mvNzvA__HQaBql2vhhs9-100" value="" style="line;strokeWidth=4;direction=south;html=1;perimeter=backbonePerimeter;points=[];outlineConnect=0;fontSize=14;fillColor=none;" parent="1" vertex="1">
          <mxGeometry x="381" y="-1540" width="10" height="480" as="geometry" />
        </mxCell>
        <mxCell id="mvNzvA__HQaBql2vhhs9-101" value="" style="line;strokeWidth=4;direction=south;html=1;perimeter=backbonePerimeter;points=[];outlineConnect=0;fontSize=14;fillColor=none;" parent="1" vertex="1">
          <mxGeometry x="-230" y="-1540" width="10" height="960" as="geometry" />
        </mxCell>
        <mxCell id="mvNzvA__HQaBql2vhhs9-102" value="" style="line;strokeWidth=4;html=1;perimeter=backbonePerimeter;points=[];outlineConnect=0;fontSize=14;fillColor=none;" parent="1" vertex="1">
          <mxGeometry x="-227" y="-654" width="140" height="150" as="geometry" />
        </mxCell>
        <mxCell id="mvNzvA__HQaBql2vhhs9-104" value="mySewnet API" style="ellipse;whiteSpace=wrap;html=1;strokeWidth=4;fontSize=14;fillColor=none;fontStyle=1" parent="1" vertex="1">
          <mxGeometry x="326" y="-1620" width="120" height="80" as="geometry" />
        </mxCell>
        <mxCell id="mvNzvA__HQaBql2vhhs9-105" value="" style="line;strokeWidth=4;html=1;perimeter=backbonePerimeter;points=[];outlineConnect=0;fontSize=14;fillColor=none;" parent="1" vertex="1">
          <mxGeometry x="290" y="-1065" width="97" height="10" as="geometry" />
        </mxCell>
        <mxCell id="mvNzvA__HQaBql2vhhs9-106" value="" style="line;strokeWidth=4;direction=south;html=1;perimeter=backbonePerimeter;points=[];outlineConnect=0;fontSize=14;fillColor=none;" parent="1" vertex="1">
          <mxGeometry x="287" y="-1059" width="10" height="439" as="geometry" />
        </mxCell>
        <mxCell id="mvNzvA__HQaBql2vhhs9-107" value="" style="line;strokeWidth=4;html=1;perimeter=backbonePerimeter;points=[];outlineConnect=0;fontSize=14;fillColor=none;" parent="1" vertex="1">
          <mxGeometry x="235" y="-624.5" width="59" height="10" as="geometry" />
        </mxCell>
        <mxCell id="mvNzvA__HQaBql2vhhs9-110" value="" style="endArrow=classic;startArrow=classic;html=1;rounded=0;fontSize=14;entryX=0;entryY=1;entryDx=0;entryDy=0;" parent="1" target="mvNzvA__HQaBql2vhhs9-99" edge="1">
          <mxGeometry width="50" height="50" relative="1" as="geometry">
            <mxPoint x="-490" y="-1400" as="sourcePoint" />
            <mxPoint x="-380" y="-1510" as="targetPoint" />
            <Array as="points">
              <mxPoint x="-262" y="-1400" />
            </Array>
          </mxGeometry>
        </mxCell>
        <mxCell id="mvNzvA__HQaBql2vhhs9-111" value="" style="endArrow=classic;startArrow=classic;html=1;rounded=0;fontSize=14;entryX=0;entryY=0.5;entryDx=0;entryDy=0;" parent="1" source="mvNzvA__HQaBql2vhhs9-1" target="mvNzvA__HQaBql2vhhs9-99" edge="1">
          <mxGeometry width="50" height="50" relative="1" as="geometry">
            <mxPoint x="-420" y="-1550" as="sourcePoint" />
            <mxPoint x="-370" y="-1600" as="targetPoint" />
            <Array as="points">
              <mxPoint x="-815" y="-1580" />
              <mxPoint x="-500" y="-1580" />
            </Array>
          </mxGeometry>
        </mxCell>
        <mxCell id="mvNzvA__HQaBql2vhhs9-112" value="" style="endArrow=classic;startArrow=classic;html=1;rounded=0;fontSize=14;entryX=0;entryY=1;entryDx=0;entryDy=0;exitX=0.599;exitY=0.023;exitDx=0;exitDy=0;exitPerimeter=0;" parent="1" target="mvNzvA__HQaBql2vhhs9-104" edge="1">
          <mxGeometry width="50" height="50" relative="1" as="geometry">
            <mxPoint x="139.8106200000002" y="-1425.0041499999998" as="sourcePoint" />
            <mxPoint x="343.57359312880635" y="-1536.7157287525374" as="targetPoint" />
            <Array as="points">
              <mxPoint x="344" y="-1425" />
            </Array>
          </mxGeometry>
        </mxCell>
        <mxCell id="mvNzvA__HQaBql2vhhs9-113" value="" style="endArrow=classic;startArrow=classic;html=1;rounded=0;fontSize=14;entryX=1;entryY=1;entryDx=0;entryDy=0;" parent="1" source="mvNzvA__HQaBql2vhhs9-26" target="mvNzvA__HQaBql2vhhs9-104" edge="1">
          <mxGeometry width="50" height="50" relative="1" as="geometry">
            <mxPoint x="460" y="-1450" as="sourcePoint" />
            <mxPoint x="510" y="-1500" as="targetPoint" />
            <Array as="points">
              <mxPoint x="675" y="-1550" />
            </Array>
          </mxGeometry>
        </mxCell>
        <mxCell id="mvNzvA__HQaBql2vhhs9-114" value="" style="endArrow=classic;startArrow=classic;html=1;rounded=0;fontSize=14;" parent="1" source="mvNzvA__HQaBql2vhhs9-106" edge="1">
          <mxGeometry width="50" height="50" relative="1" as="geometry">
            <mxPoint x="950" y="-840" as="sourcePoint" />
            <mxPoint x="1050" y="-790" as="targetPoint" />
            <Array as="points">
              <mxPoint x="1050" y="-1000" />
            </Array>
          </mxGeometry>
        </mxCell>
        <mxCell id="mvNzvA__HQaBql2vhhs9-115" value="" style="endArrow=classic;startArrow=classic;html=1;rounded=0;fontSize=14;" parent="1" source="mvNzvA__HQaBql2vhhs9-26" target="mvNzvA__HQaBql2vhhs9-32" edge="1">
          <mxGeometry width="50" height="50" relative="1" as="geometry">
            <mxPoint x="940" y="-1420" as="sourcePoint" />
            <mxPoint x="990" y="-1470" as="targetPoint" />
          </mxGeometry>
        </mxCell>
        <mxCell id="mvNzvA__HQaBql2vhhs9-116" value="" style="endArrow=classic;startArrow=classic;html=1;rounded=0;fontSize=14;entryX=0.636;entryY=0.741;entryDx=0;entryDy=0;entryPerimeter=0;" parent="1" source="mvNzvA__HQaBql2vhhs9-41" target="mvNzvA__HQaBql2vhhs9-32" edge="1">
          <mxGeometry width="50" height="50" relative="1" as="geometry">
            <mxPoint x="1200" y="-1000" as="sourcePoint" />
            <mxPoint x="1250" y="-1050" as="targetPoint" />
            <Array as="points">
              <mxPoint x="1280" y="-736" />
            </Array>
          </mxGeometry>
        </mxCell>
        <mxCell id="mvNzvA__HQaBql2vhhs9-117" value="" style="endArrow=classic;startArrow=classic;html=1;rounded=0;fontSize=14;entryX=1;entryY=1;entryDx=0;entryDy=0;" parent="1" source="mvNzvA__HQaBql2vhhs9-20" target="mvNzvA__HQaBql2vhhs9-99" edge="1">
          <mxGeometry width="50" height="50" relative="1" as="geometry">
            <mxPoint x="-120" y="-1420" as="sourcePoint" />
            <mxPoint x="-70" y="-1470" as="targetPoint" />
            <Array as="points">
              <mxPoint x="-178" y="-1380" />
            </Array>
          </mxGeometry>
        </mxCell>
        <mxCell id="mvNzvA__HQaBql2vhhs9-119" value="" style="endArrow=classic;startArrow=classic;html=1;rounded=0;fontSize=14;entryX=0.607;entryY=1.006;entryDx=0;entryDy=0;entryPerimeter=0;" parent="1" target="mvNzvA__HQaBql2vhhs9-49" edge="1">
          <mxGeometry width="50" height="50" relative="1" as="geometry">
            <mxPoint x="-28" y="-650" as="sourcePoint" />
            <mxPoint x="-10" y="-710" as="targetPoint" />
          </mxGeometry>
        </mxCell>
        <mxCell id="mvNzvA__HQaBql2vhhs9-120" value="" style="endArrow=classic;startArrow=classic;html=1;rounded=0;fontSize=14;" parent="1" source="mvNzvA__HQaBql2vhhs9-77" edge="1">
          <mxGeometry width="50" height="50" relative="1" as="geometry">
            <mxPoint x="167" y="-686.7106781186548" as="sourcePoint" />
            <mxPoint x="167" y="-720" as="targetPoint" />
          </mxGeometry>
        </mxCell>
        <mxCell id="mvNzvA__HQaBql2vhhs9-121" value="" style="endArrow=classic;startArrow=classic;html=1;rounded=0;fontSize=14;exitX=0.785;exitY=0.181;exitDx=0;exitDy=0;exitPerimeter=0;entryX=0.015;entryY=0.367;entryDx=0;entryDy=0;entryPerimeter=0;" parent="1" source="mvNzvA__HQaBql2vhhs9-77" target="mvNzvA__HQaBql2vhhs9-55" edge="1">
          <mxGeometry width="50" height="50" relative="1" as="geometry">
            <mxPoint x="230" y="-650" as="sourcePoint" />
            <mxPoint x="280" y="-700" as="targetPoint" />
            <Array as="points">
              <mxPoint x="204" y="-700" />
              <mxPoint x="361" y="-700" />
            </Array>
          </mxGeometry>
        </mxCell>
        <mxCell id="mvNzvA__HQaBql2vhhs9-122" value="" style="endArrow=classic;startArrow=classic;html=1;rounded=0;fontSize=14;" parent="1" edge="1">
          <mxGeometry width="50" height="50" relative="1" as="geometry">
            <mxPoint x="220" y="-580" as="sourcePoint" />
            <mxPoint x="340" y="-582.20641025641" as="targetPoint" />
          </mxGeometry>
        </mxCell>
        <mxCell id="mvNzvA__HQaBql2vhhs9-124" value="" style="endArrow=classic;startArrow=classic;html=1;rounded=0;fontSize=14;entryX=0.037;entryY=0.388;entryDx=0;entryDy=0;entryPerimeter=0;" parent="1" edge="1">
          <mxGeometry width="50" height="50" relative="1" as="geometry">
            <mxPoint x="2" y="-619" as="sourcePoint" />
            <mxPoint x="108.8100000000004" y="-619.4399999999996" as="targetPoint" />
          </mxGeometry>
        </mxCell>
        <mxCell id="mvNzvA__HQaBql2vhhs9-125" value="" style="endArrow=classic;startArrow=classic;html=1;rounded=0;fontSize=14;" parent="1" edge="1">
          <mxGeometry width="50" height="50" relative="1" as="geometry">
            <mxPoint x="230" y="-619" as="sourcePoint" />
            <mxPoint x="540" y="-700" as="targetPoint" />
            <Array as="points">
              <mxPoint x="230" y="-680" />
              <mxPoint x="540" y="-680" />
            </Array>
          </mxGeometry>
        </mxCell>
        <mxCell id="mvNzvA__HQaBql2vhhs9-129" value="" style="endArrow=classic;startArrow=classic;html=1;rounded=0;fontSize=14;exitX=0.396;exitY=1.049;exitDx=0;exitDy=0;exitPerimeter=0;" parent="1" source="mvNzvA__HQaBql2vhhs9-75" target="mvNzvA__HQaBql2vhhs9-44" edge="1">
          <mxGeometry width="50" height="50" relative="1" as="geometry">
            <mxPoint x="340" y="-420" as="sourcePoint" />
            <mxPoint x="1290" y="-430" as="targetPoint" />
            <Array as="points">
              <mxPoint x="370" y="-400" />
              <mxPoint x="1125" y="-400" />
            </Array>
          </mxGeometry>
        </mxCell>
        <mxCell id="mvNzvA__HQaBql2vhhs9-130" value="" style="endArrow=classic;startArrow=classic;html=1;rounded=0;fontSize=14;entryX=0.165;entryY=1.023;entryDx=0;entryDy=0;entryPerimeter=0;exitX=0.591;exitY=-0.015;exitDx=0;exitDy=0;exitPerimeter=0;" parent="1" target="mvNzvA__HQaBql2vhhs9-24" edge="1" source="mvNzvA__HQaBql2vhhs9-85">
          <mxGeometry width="50" height="50" relative="1" as="geometry">
            <mxPoint x="-450" y="-860" as="sourcePoint" />
            <mxPoint x="-400" y="-910" as="targetPoint" />
            <Array as="points">
              <mxPoint x="-645" y="-930" />
              <mxPoint x="36" y="-930" />
            </Array>
          </mxGeometry>
        </mxCell>
        <mxCell id="mvNzvA__HQaBql2vhhs9-131" value="" style="endArrow=classic;startArrow=classic;html=1;rounded=0;fontSize=14;" parent="1" target="mvNzvA__HQaBql2vhhs9-101" edge="1">
          <mxGeometry width="50" height="50" relative="1" as="geometry">
            <mxPoint x="-400" y="-700" as="sourcePoint" />
            <mxPoint x="-350" y="-750" as="targetPoint" />
          </mxGeometry>
        </mxCell>
        <mxCell id="mvNzvA__HQaBql2vhhs9-134" value="" style="endArrow=classic;startArrow=classic;html=1;rounded=0;fontSize=14;" parent="1" target="mvNzvA__HQaBql2vhhs9-20" edge="1">
          <mxGeometry width="50" height="50" relative="1" as="geometry">
            <mxPoint x="610" y="-1381" as="sourcePoint" />
            <mxPoint x="530" y="-1700" as="targetPoint" />
          </mxGeometry>
        </mxCell>
        <mxCell id="mvNzvA__HQaBql2vhhs9-135" value="" style="endArrow=classic;startArrow=classic;html=1;rounded=0;fontSize=14;exitX=1.012;exitY=0.151;exitDx=0;exitDy=0;exitPerimeter=0;" parent="1" source="mvNzvA__HQaBql2vhhs9-24" target="mvNzvA__HQaBql2vhhs9-41" edge="1">
          <mxGeometry width="50" height="50" relative="1" as="geometry">
            <mxPoint x="670" y="-1000" as="sourcePoint" />
            <mxPoint x="720" y="-1050" as="targetPoint" />
            <Array as="points">
              <mxPoint x="210" y="-940" />
              <mxPoint x="1098" y="-930" />
            </Array>
          </mxGeometry>
        </mxCell>
        <mxCell id="mvNzvA__HQaBql2vhhs9-136" value="" style="endArrow=classic;startArrow=classic;html=1;rounded=0;fontSize=14;entryX=0.5;entryY=1;entryDx=0;entryDy=0;" parent="1" target="mvNzvA__HQaBql2vhhs9-24" edge="1">
          <mxGeometry width="50" height="50" relative="1" as="geometry">
            <mxPoint x="-820" y="-1020" as="sourcePoint" />
            <mxPoint x="-400" y="-980" as="targetPoint" />
            <Array as="points">
              <mxPoint x="-820" y="-970" />
              <mxPoint x="-730" y="-970" />
              <mxPoint x="105" y="-970" />
            </Array>
          </mxGeometry>
        </mxCell>
        <mxCell id="mvNzvA__HQaBql2vhhs9-138" value="mySewnet Ecosystem" style="text;strokeColor=none;fillColor=none;html=1;fontSize=54;fontStyle=1;verticalAlign=middle;align=center;strokeWidth=4;" parent="1" vertex="1">
          <mxGeometry x="-30" y="-1800" width="650" height="80" as="geometry" />
        </mxCell>
        <mxCell id="Xt672BL3gchlRRBdDnMf-1" value="" style="endArrow=classic;startArrow=classic;html=1;rounded=0;exitX=0.736;exitY=0.669;exitDx=0;exitDy=0;exitPerimeter=0;" edge="1" parent="1" source="mvNzvA__HQaBql2vhhs9-3" target="mvNzvA__HQaBql2vhhs9-41">
          <mxGeometry width="50" height="50" relative="1" as="geometry">
            <mxPoint x="-280" y="-1024" as="sourcePoint" />
            <mxPoint x="-230" y="-1074" as="targetPoint" />
            <Array as="points">
              <mxPoint x="-300" y="-1360" />
              <mxPoint x="-300" y="-1030" />
              <mxPoint x="360" y="-1030" />
              <mxPoint x="360" y="-890" />
              <mxPoint x="700" y="-890" />
              <mxPoint x="760" y="-890" />
              <mxPoint x="760" y="-740" />
            </Array>
          </mxGeometry>
        </mxCell>
        <mxCell id="Xt672BL3gchlRRBdDnMf-2" value="" style="endArrow=classic;startArrow=classic;html=1;rounded=0;entryX=0.179;entryY=0.103;entryDx=0;entryDy=0;entryPerimeter=0;" edge="1" parent="1" target="mvNzvA__HQaBql2vhhs9-77">
          <mxGeometry width="50" height="50" relative="1" as="geometry">
            <mxPoint x="20" y="-724" as="sourcePoint" />
            <mxPoint x="185.09999999999945" y="-201.96000000000004" as="targetPoint" />
            <Array as="points">
              <mxPoint x="20" y="-654" />
            </Array>
          </mxGeometry>
        </mxCell>
        <mxCell id="Xt672BL3gchlRRBdDnMf-3" value="" style="rounded=1;whiteSpace=wrap;html=1;fontSize=14;textOpacity=0;fillColor=none;strokeWidth=4;strokeColor=#d79b00;" vertex="1" parent="1">
          <mxGeometry x="-272" y="-862.5" width="1022" height="520" as="geometry" />
        </mxCell>
        <mxCell id="Xt672BL3gchlRRBdDnMf-6" value="" style="aspect=fixed;perimeter=ellipsePerimeter;html=1;align=center;shadow=0;dashed=0;spacingTop=3;image;image=img/lib/active_directory/internet_cloud.svg;fontSize=14;" vertex="1" parent="1">
          <mxGeometry x="1420" y="-984.8499999999999" width="451.35" height="284.35" as="geometry" />
        </mxCell>
        <mxCell id="Xt672BL3gchlRRBdDnMf-4" value="" style="verticalLabelPosition=bottom;html=1;verticalAlign=top;strokeWidth=1;align=center;outlineConnect=0;dashed=0;outlineConnect=0;shape=mxgraph.aws3d.application;fillColor=#4286c5;strokeColor=#57A2D8;aspect=fixed;" vertex="1" parent="1">
          <mxGeometry x="1584.32" y="-969.4100000000001" width="110" height="122.06" as="geometry" />
        </mxCell>
        <mxCell id="Xt672BL3gchlRRBdDnMf-5" value="Avalara" style="text;strokeColor=none;fillColor=none;html=1;fontSize=24;fontStyle=1;verticalAlign=middle;align=center;" vertex="1" parent="1">
          <mxGeometry x="1620" y="-852.3499999999999" width="100" height="40" as="geometry" />
        </mxCell>
        <mxCell id="Xt672BL3gchlRRBdDnMf-7" value="&lt;ul&gt;&lt;li&gt;Validate Address&lt;/li&gt;&lt;li&gt;Calclate Tax&lt;/li&gt;&lt;li&gt;Create transactions&lt;/li&gt;&lt;li&gt;Commit Transactions&lt;/li&gt;&lt;/ul&gt;" style="text;strokeColor=none;fillColor=none;html=1;whiteSpace=wrap;verticalAlign=middle;overflow=hidden;fontSize=14;" vertex="1" parent="1">
          <mxGeometry x="1584.32" y="-837.3499999999999" width="225" height="90" as="geometry" />
        </mxCell>
        <mxCell id="Xt672BL3gchlRRBdDnMf-8" value="Avalara Cloud" style="text;strokeColor=none;fillColor=none;html=1;fontSize=24;fontStyle=1;verticalAlign=middle;align=center;" vertex="1" parent="1">
          <mxGeometry x="1400" y="-1003.9999999999999" width="240" height="40" as="geometry" />
        </mxCell>
        <mxCell id="Xt672BL3gchlRRBdDnMf-9" value="" style="endArrow=classic;startArrow=classic;html=1;rounded=0;entryX=0.233;entryY=0.208;entryDx=0;entryDy=0;entryPerimeter=0;" edge="1" parent="1" source="mvNzvA__HQaBql2vhhs9-104" target="Xt672BL3gchlRRBdDnMf-4">
          <mxGeometry width="50" height="50" relative="1" as="geometry">
            <mxPoint x="840" y="-1604" as="sourcePoint" />
            <mxPoint x="1850" y="-1580" as="targetPoint" />
            <Array as="points">
              <mxPoint x="1610" y="-1570" />
            </Array>
          </mxGeometry>
        </mxCell>
        <mxCell id="Xt672BL3gchlRRBdDnMf-10" value="" style="endArrow=classic;startArrow=classic;html=1;rounded=0;exitX=0.523;exitY=0.925;exitDx=0;exitDy=0;exitPerimeter=0;entryX=0.07;entryY=0.748;entryDx=0;entryDy=0;entryPerimeter=0;" edge="1" parent="1" source="mvNzvA__HQaBql2vhhs9-41" target="Xt672BL3gchlRRBdDnMf-7">
          <mxGeometry width="50" height="50" relative="1" as="geometry">
            <mxPoint x="1480" y="-874" as="sourcePoint" />
            <mxPoint x="1610" y="-650" as="targetPoint" />
            <Array as="points">
              <mxPoint x="1600" y="-680" />
            </Array>
          </mxGeometry>
        </mxCell>
        <mxCell id="Xt672BL3gchlRRBdDnMf-11" value="" style="endArrow=classic;startArrow=classic;html=1;rounded=0;exitX=0.965;exitY=0.781;exitDx=0;exitDy=0;exitPerimeter=0;" edge="1" parent="1" source="mvNzvA__HQaBql2vhhs9-26">
          <mxGeometry width="50" height="50" relative="1" as="geometry">
            <mxPoint x="960" y="-1054" as="sourcePoint" />
            <mxPoint x="1650" y="-984" as="targetPoint" />
            <Array as="points">
              <mxPoint x="840" y="-1335" />
              <mxPoint x="840" y="-1084" />
              <mxPoint x="1650" y="-1084" />
            </Array>
          </mxGeometry>
        </mxCell>
        <mxCell id="Xt672BL3gchlRRBdDnMf-13" value="" style="endArrow=classic;startArrow=classic;html=1;rounded=0;" edge="1" parent="1" target="mvNzvA__HQaBql2vhhs9-1">
          <mxGeometry width="50" height="50" relative="1" as="geometry">
            <mxPoint x="-1000" y="-760" as="sourcePoint" />
            <mxPoint x="-1160" y="-1440" as="targetPoint" />
            <Array as="points">
              <mxPoint x="-1160" y="-760" />
              <mxPoint x="-1160" y="-1381" />
            </Array>
          </mxGeometry>
        </mxCell>
        <mxCell id="Xt672BL3gchlRRBdDnMf-14" value="" style="endArrow=classic;startArrow=classic;html=1;rounded=0;entryX=0.464;entryY=0.996;entryDx=0;entryDy=0;entryPerimeter=0;" edge="1" parent="1">
          <mxGeometry width="50" height="50" relative="1" as="geometry">
            <mxPoint x="-445" y="-868" as="sourcePoint" />
            <mxPoint x="-554.96" y="-1318.0382400000003" as="targetPoint" />
            <Array as="points">
              <mxPoint x="-445" y="-1008" />
              <mxPoint x="-435" y="-1318" />
            </Array>
          </mxGeometry>
        </mxCell>
        <mxCell id="Xt672BL3gchlRRBdDnMf-16" value="" style="endArrow=classic;startArrow=classic;html=1;rounded=0;entryX=0.411;entryY=1.412;entryDx=0;entryDy=0;entryPerimeter=0;exitX=0.5;exitY=1;exitDx=0;exitDy=0;" edge="1" parent="1" source="mvNzvA__HQaBql2vhhs9-81" target="mvNzvA__HQaBql2vhhs9-72">
          <mxGeometry width="50" height="50" relative="1" as="geometry">
            <mxPoint x="190" y="-360" as="sourcePoint" />
            <mxPoint x="640" y="-480" as="targetPoint" />
            <Array as="points">
              <mxPoint x="180" y="-360" />
              <mxPoint x="600" y="-360" />
            </Array>
          </mxGeometry>
        </mxCell>
      </root>
    </mxGraphModel>
  </diagram>
</mxfile>
